<?xml version="1.0" standalone="no"?>
<!DOCTYPE svg PUBLIC "-//W3C//DTD SVG 20010904//EN"
 "http://www.w3.org/TR/2001/REC-SVG-20010904/DTD/svg10.dtd">
<svg version="1.0" xmlns="http://www.w3.org/2000/svg"
 width="512.000000pt" height="512.000000pt" viewBox="0 0 512.000000 512.000000"
 preserveAspectRatio="xMidYMid meet">
<metadata>
Created by potrace 1.11, written by Peter Selinger 2001-2013
</metadata>
<g transform="translate(0.000000,512.000000) scale(0.100000,-0.100000)"
fill="#000000" stroke="none">
<path d="M2414 4215 c-392 -88 -672 -494 -665 -965 3 -150 16 -233 60 -361 68
-203 191 -371 351 -479 66 -45 182 -99 212 -100 19 0 34 -17 15 -17 -123 -2
-481 -81 -522 -115 -5 -4 -15 -8 -23 -8 -27 0 -248 -114 -345 -178 -181 -120
-348 -284 -459 -452 -83 -126 -168 -318 -194 -440 -8 -42 -23 -123 -28 -162
l-6 -38 1746 0 1745 0 -6 35 c-3 19 -7 50 -10 68 -3 17 -8 43 -11 57 -3 14 -7
35 -10 48 -12 58 -60 185 -104 277 -175 364 -549 676 -977 815 -136 45 -279
77 -382 86 -75 7 -97 18 -51 27 130 26 328 177 427 325 390 581 133 1435 -475
1575 -79 18 -211 19 -288 2z"/>
<path d="M1300 3559 c-76 -14 -86 -17 -146 -45 -193 -90 -350 -307 -390 -539
-4 -22 -8 -49 -10 -60 -6 -34 -6 -198 1 -240 37 -237 154 -435 327 -549 63
-42 142 -74 202 -83 58 -8 58 -13 -2 -14 -29 -1 -55 -2 -59 -3 -5 -1 -35 -6
-68 -10 -87 -11 -258 -56 -330 -86 -11 -4 -38 -15 -60 -25 -22 -9 -52 -23 -67
-31 -15 -8 -50 -27 -78 -42 -72 -38 -192 -129 -267 -203 -169 -166 -278 -361
-324 -582 -12 -59 -20 -110 -16 -113 3 -3 138 -6 299 -6 376 1 378 1 376 10
-4 15 13 123 31 199 22 90 60 199 99 281 172 361 526 674 937 826 94 35 103
41 130 84 17 25 37 62 47 81 l16 35 -52 56 c-123 133 -215 321 -257 525 -20
93 -18 404 2 446 11 22 0 32 -56 56 -82 34 -201 47 -285 32z"/>
<path d="M3638 3535 c-2 -2 -17 -6 -33 -9 -16 -3 -54 -15 -83 -27 l-54 -22 8
-61 c15 -109 10 -353 -9 -436 -26 -112 -56 -197 -97 -280 -39 -78 -137 -217
-183 -259 l-27 -24 36 -68 c44 -83 56 -94 130 -120 82 -29 235 -102 324 -155
104 -62 113 -68 125 -79 7 -5 27 -21 45 -35 243 -182 444 -453 534 -723 23
-68 33 -104 52 -192 3 -11 7 -42 10 -70 3 -27 7 -56 9 -63 3 -9 80 -12 340
-12 l335 0 -5 48 c-8 67 -44 195 -76 275 -102 247 -312 468 -579 609 -55 29
-143 69 -160 73 -3 0 -35 11 -71 23 -36 12 -76 25 -90 28 -56 13 -113 24 -152
29 -23 3 -51 8 -62 10 -11 2 -42 4 -70 5 l-50 1 81 24 c114 34 188 79 272 165
193 199 265 490 198 805 -8 37 -43 131 -66 175 -84 165 -222 289 -385 345 -44
15 -236 31 -247 20z"/>
</g>
</svg>
