<?xml version="1.0" standalone="no"?>
<!DOCTYPE svg PUBLIC "-//W3C//DTD SVG 20010904//EN"
 "http://www.w3.org/TR/2001/REC-SVG-20010904/DTD/svg10.dtd">
<svg version="1.0" xmlns="http://www.w3.org/2000/svg"
 width="512.000000pt" height="512.000000pt" viewBox="0 0 512.000000 512.000000"
 preserveAspectRatio="xMidYMid meet">
<metadata>
Created by potrace 1.11, written by Peter Selinger 2001-2013
</metadata>
<g transform="translate(0.000000,512.000000) scale(0.100000,-0.100000)"
fill="#000000" stroke="none">
<path d="M2374 4969 c-116 -40 -195 -90 -283 -178 -106 -106 -124 -131 -186
-256 -75 -154 -106 -290 -109 -470 -2 -112 3 -151 39 -315 9 -42 38 -120 45
-125 6 -3 10 -15 10 -26 0 -10 4 -19 10 -19 5 0 9 -3 8 -7 -6 -23 104 -186
165 -246 88 -86 239 -178 318 -194 48 -9 33 -20 -37 -27 -152 -16 -348 -65
-489 -123 -115 -47 -195 -86 -195 -94 0 -5 -9 -9 -20 -9 -11 0 -20 -4 -20 -8
0 -5 -12 -15 -27 -22 -80 -41 -249 -175 -335 -267 -29 -31 -58 -61 -63 -67 -6
-6 -24 -29 -40 -51 -17 -22 -32 -42 -35 -45 -16 -14 -92 -145 -124 -211 -40
-87 -92 -236 -100 -294 -4 -22 -8 -47 -11 -55 -2 -8 -6 -36 -9 -62 l-6 -48
1706 0 1706 0 -7 28 c-4 15 -7 34 -7 42 0 8 -9 54 -19 101 -97 450 -440 841
-919 1046 -160 68 -365 123 -524 139 -37 4 -66 10 -66 13 0 3 19 12 43 19 42
13 148 61 157 72 3 3 23 18 45 34 22 16 55 45 73 63 18 18 37 33 42 33 6 0 10
4 10 8 0 5 10 20 21 33 41 46 112 164 144 240 35 80 71 214 80 289 6 60 6 259
0 290 -3 14 -8 41 -11 60 -16 110 -84 279 -153 385 -52 79 -153 185 -223 233
-26 18 -50 32 -54 32 -4 0 -15 6 -23 13 -14 12 -117 54 -161 65 -8 3 -76 5
-150 7 -126 2 -141 0 -216 -26z"/>
<path d="M1311 4339 c-68 -17 -152 -55 -159 -71 -2 -5 -9 -8 -16 -8 -12 0
-125 -105 -159 -149 -50 -63 -122 -221 -133 -289 -3 -21 -8 -40 -10 -44 -5 -8
-15 -99 -17 -158 -5 -152 44 -334 126 -465 90 -144 291 -288 400 -287 44 1 22
-14 -25 -16 -61 -4 -151 -16 -188 -27 -8 -2 -31 -7 -49 -10 -42 -7 -194 -55
-201 -64 -3 -3 -12 -7 -20 -9 -34 -7 -151 -70 -242 -129 -99 -65 -213 -168
-284 -258 -21 -27 -45 -56 -51 -63 -7 -7 -13 -17 -13 -22 0 -5 -6 -15 -12 -22
-21 -22 -73 -128 -101 -203 -29 -77 -46 -145 -53 -217 -5 -42 -3 -48 13 -49
96 -4 623 0 630 4 6 4 13 35 17 69 10 88 51 238 94 338 86 203 198 363 361
514 25 22 53 49 63 59 10 9 20 17 23 17 3 0 17 10 30 23 40 36 54 47 64 47 5
0 11 4 13 8 11 27 312 183 418 217 71 23 81 32 126 118 l37 70 -22 19 c-13 9
-45 46 -72 80 -27 35 -53 68 -58 74 -5 6 -12 20 -15 32 -4 12 -12 22 -17 22
-5 0 -9 4 -9 9 0 5 -13 38 -29 73 -32 70 -69 184 -77 238 -3 19 -9 49 -13 65
-12 44 -11 269 1 348 6 37 8 70 5 73 -3 3 -37 17 -77 30 -94 33 -201 38 -299
13z"/>
<path d="M3640 4323 c-34 -5 -142 -43 -157 -55 -6 -5 -9 -19 -7 -31 24 -104
24 -345 1 -442 -6 -23 -26 -103 -31 -125 -28 -111 -139 -302 -233 -400 -18
-19 -33 -38 -33 -43 0 -13 61 -120 79 -139 9 -9 58 -32 109 -52 109 -42 252
-114 335 -168 32 -21 62 -38 67 -38 5 0 10 -3 12 -8 2 -4 25 -25 53 -47 90
-72 170 -149 250 -240 45 -52 145 -206 185 -284 43 -87 93 -221 82 -221 -4 0
-2 -4 4 -8 15 -10 47 -165 53 -254 1 -17 24 -18 332 -18 l331 0 -7 43 c-4 23
-9 51 -11 62 -2 11 -7 33 -9 48 -10 52 -58 181 -85 227 -15 25 -28 50 -29 55
-2 6 -28 46 -58 89 -108 154 -269 293 -446 385 -96 50 -238 107 -287 116 -16
3 -42 10 -57 16 -15 6 -29 10 -31 9 -3 -1 -89 11 -117 17 -11 2 -46 6 -78 7
-73 5 -81 11 -23 19 57 8 165 57 219 99 143 111 239 273 283 473 9 43 15 265
7 278 -3 5 -7 26 -8 46 -2 20 -7 47 -13 61 -5 14 -10 29 -10 33 0 28 -59 154
-100 216 -67 101 -154 178 -257 226 -99 47 -214 64 -315 48z"/>
<path d="M1560 1676 c0 -5 -3 -7 -6 -3 -3 3 -29 -1 -57 -10 -175 -51 -349
-191 -433 -349 -102 -190 -114 -411 -34 -615 90 -226 306 -399 554 -440 82
-14 216 -7 301 16 73 19 225 92 232 111 3 8 10 14 15 14 10 0 112 101 148 146
27 33 87 149 94 180 l7 31 117 0 c64 1 211 2 325 3 114 1 210 1 212 -1 2 -2 5
-95 7 -206 l3 -203 33 -32 32 -33 304 1 c327 2 341 4 379 55 18 25 19 43 18
228 l-2 201 65 0 c108 0 185 47 221 135 49 117 -15 258 -133 293 -36 11 -362
11 -1432 -1 l-145 -2 -24 55 c-52 122 -148 239 -254 312 -58 40 -171 95 -210
102 -12 2 -42 9 -67 15 -55 12 -270 10 -270 -3z m253 -456 c96 -45 158 -142
158 -249 0 -32 -4 -69 -11 -80 -6 -12 -8 -21 -5 -21 7 0 -43 -79 -64 -100 -48
-48 -151 -83 -221 -74 -64 7 -144 49 -183 95 -86 99 -85 265 1 363 30 33 103
78 135 83 18 3 33 6 35 8 11 11 115 -6 155 -25z"/>
</g>
</svg>
