<?xml version="1.0" standalone="no"?>
<!DOCTYPE svg PUBLIC "-//W3C//DTD SVG 20010904//EN"
 "http://www.w3.org/TR/2001/REC-SVG-20010904/DTD/svg10.dtd">
<svg version="1.0" xmlns="http://www.w3.org/2000/svg"
 width="512.000000pt" height="512.000000pt" viewBox="0 0 512.000000 512.000000"
 preserveAspectRatio="xMidYMid meet">
<metadata>
Created by potrace 1.11, written by Peter Selinger 2001-2013
</metadata>
<g transform="translate(0.000000,512.000000) scale(0.100000,-0.100000)"
fill="#000000" stroke="none">
<path d="M2374 4969 c-116 -40 -195 -90 -283 -178 -106 -106 -124 -131 -186
-256 -110 -227 -138 -471 -83 -725 6 -30 12 -57 13 -60 1 -3 5 -18 10 -35 4
-16 10 -34 14 -40 3 -5 6 -15 7 -20 3 -18 75 -159 90 -176 8 -8 14 -19 14 -23
0 -10 66 -91 105 -130 83 -84 237 -177 316 -193 48 -9 33 -20 -37 -27 -152
-16 -348 -65 -489 -123 -115 -47 -195 -86 -195 -94 0 -5 -9 -9 -20 -9 -11 0
-20 -4 -20 -8 0 -5 -12 -15 -27 -23 -99 -50 -261 -183 -368 -302 -44 -48 -82
-94 -84 -100 -2 -7 -7 -14 -11 -17 -16 -11 -100 -150 -133 -221 -42 -87 -93
-236 -101 -294 -4 -22 -8 -47 -11 -55 -2 -8 -6 -36 -9 -62 l-6 -48 1706 0
1706 0 -7 28 c-4 15 -9 45 -11 67 -2 21 -13 74 -24 117 -114 439 -446 806
-910 1005 -160 68 -365 123 -524 139 -37 4 -66 10 -66 13 0 3 18 12 40 18 41
13 151 63 160 73 3 3 23 18 45 34 22 16 55 45 73 63 18 18 37 33 42 33 6 0 10
4 10 8 0 5 10 20 21 33 82 92 182 299 203 419 2 14 7 36 10 50 16 60 23 294
11 350 -3 14 -8 41 -11 60 -16 110 -84 279 -153 385 -52 79 -153 185 -223 233
-26 18 -50 32 -54 32 -4 0 -15 6 -23 13 -14 12 -117 54 -161 65 -8 3 -76 6
-150 7 -126 2 -140 1 -216 -26z"/>
<path d="M1311 4339 c-68 -17 -152 -55 -159 -71 -2 -5 -9 -8 -16 -8 -12 0
-125 -105 -159 -149 -50 -63 -122 -221 -133 -289 -3 -21 -8 -40 -10 -44 -5 -8
-15 -99 -17 -158 -5 -152 44 -334 126 -465 90 -144 291 -288 400 -287 44 1 22
-14 -25 -16 -61 -4 -151 -16 -188 -27 -8 -2 -31 -7 -49 -10 -42 -7 -194 -55
-201 -64 -3 -3 -12 -7 -20 -9 -34 -7 -151 -70 -242 -129 -99 -65 -213 -168
-284 -258 -21 -27 -45 -56 -51 -63 -7 -7 -13 -17 -13 -22 0 -5 -6 -15 -12 -22
-21 -22 -73 -128 -101 -203 -29 -77 -46 -145 -53 -217 -5 -42 -3 -48 13 -49
97 -4 623 0 630 4 6 4 14 37 18 74 9 84 56 254 94 338 17 36 27 65 23 65 -4 0
-2 4 4 8 5 4 27 39 48 77 67 124 169 252 285 359 25 23 53 49 63 59 10 9 20
17 23 17 3 0 17 10 30 23 40 36 54 47 64 47 5 0 11 4 13 8 11 27 312 183 418
217 71 23 81 32 126 118 l37 70 -22 19 c-13 9 -45 46 -72 80 -27 35 -52 68
-57 73 -45 58 -134 283 -148 374 -3 20 -9 50 -13 66 -12 44 -11 269 1 348 6
37 8 70 5 73 -3 3 -37 17 -77 30 -94 33 -201 38 -299 13z"/>
<path d="M3602 4314 c-82 -21 -127 -46 -125 -69 2 -11 6 -42 10 -70 13 -97 8
-301 -11 -380 -4 -18 -21 -88 -30 -125 -28 -111 -139 -302 -233 -400 -18 -19
-33 -38 -33 -43 0 -13 61 -120 79 -139 9 -9 58 -32 109 -52 109 -42 252 -114
335 -168 32 -21 62 -38 67 -38 5 0 10 -3 12 -8 2 -4 25 -25 53 -47 90 -72 170
-149 250 -240 84 -96 202 -301 245 -425 12 -36 26 -74 31 -85 4 -11 16 -56 25
-100 15 -73 20 -106 23 -157 1 -17 24 -18 332 -18 l331 0 -7 43 c-4 23 -9 51
-11 62 -2 11 -7 33 -9 48 -10 54 -59 182 -88 232 -16 28 -28 50 -26 50 2 0
-22 38 -55 84 -111 159 -270 297 -449 390 -98 51 -238 107 -290 116 -16 3 -33
8 -37 10 -4 2 -22 7 -41 10 -19 3 -41 8 -49 10 -19 5 -112 16 -168 20 -48 4
-70 15 -31 16 43 1 68 8 135 39 193 87 335 283 390 535 9 43 15 265 7 278 -3
5 -7 26 -9 46 -4 42 -8 62 -15 76 -3 6 -12 30 -19 55 -18 59 -72 162 -112 214
-69 89 -141 148 -233 191 -115 54 -239 68 -353 39z"/>
<path d="M150 910 l0 -700 700 0 700 0 0 700 0 700 -700 0 -700 0 0 -700z"/>
<path d="M2475 1603 c-141 -31 -177 -46 -275 -108 -142 -91 -235 -215 -291
-386 -26 -82 -33 -238 -14 -336 52 -271 268 -489 544 -548 88 -19 256 -13 336
13 238 76 417 258 481 488 22 81 27 243 9 327 -57 267 -267 479 -539 544 -29
7 -226 12 -251 6z"/>
<path d="M4255 1508 c-28 -51 -68 -126 -91 -168 -22 -41 -54 -100 -71 -130
-17 -30 -89 -163 -161 -295 -161 -298 -183 -339 -214 -395 -14 -25 -44 -81
-68 -125 -23 -44 -56 -104 -72 -132 l-29 -53 761 0 761 0 -34 63 c-19 34 -134
247 -257 472 -122 226 -246 453 -275 505 -29 52 -72 131 -95 175 -69 129 -95
175 -100 175 -3 0 -28 -42 -55 -92z"/>
</g>
</svg>
