<?xml version="1.0" standalone="no"?>
<!DOCTYPE svg PUBLIC "-//W3C//DTD SVG 20010904//EN"
 "http://www.w3.org/TR/2001/REC-SVG-20010904/DTD/svg10.dtd">
<svg version="1.0" xmlns="http://www.w3.org/2000/svg"
 width="512.000000pt" height="512.000000pt" viewBox="0 0 512.000000 512.000000"
 preserveAspectRatio="xMidYMid meet">
<metadata>
Created by potrace 1.11, written by Peter Selinger 2001-2013
</metadata>
<g transform="translate(0.000000,512.000000) scale(0.100000,-0.100000)"
fill="#000000" stroke="none">
<path d="M2644 4917 c1 -111 0 -207 -1 -212 -2 -7 -340 -10 -998 -10 l-995 0
0 -395 0 -395 995 0 c878 0 995 -2 996 -15 1 -8 1 -104 1 -212 l1 -197 31 13
c26 11 445 201 646 293 68 31 688 312 753 342 26 11 66 30 90 40 23 11 80 37
127 59 47 21 95 42 107 46 60 19 46 30 -145 116 -103 46 -234 105 -291 132
-57 26 -105 48 -106 48 -2 0 -51 23 -110 50 -59 28 -108 50 -110 50 -2 0 -39
16 -82 36 -43 20 -199 92 -348 159 -148 68 -295 134 -325 148 -70 32 -166 75
-206 92 l-30 14 0 -202z"/>
<path d="M2405 3269 c-254 -61 -481 -281 -575 -559 -12 -36 -25 -72 -27 -80
-3 -8 -7 -22 -8 -30 -2 -8 -6 -26 -9 -40 -25 -101 -25 -339 -2 -440 4 -14 9
-38 11 -53 17 -93 91 -256 159 -351 104 -146 281 -277 406 -303 17 -3 33 -10
36 -15 3 -4 2 -8 -3 -6 -8 2 -127 -11 -172 -18 -142 -25 -359 -92 -463 -144
-32 -16 -58 -26 -58 -22 0 4 -4 3 -8 -3 -4 -5 -27 -21 -52 -34 -376 -205 -648
-537 -750 -916 -19 -71 -23 -89 -35 -177 l-6 -48 1705 0 1705 0 -5 37 c-5 35
-18 107 -28 158 -25 119 -124 337 -209 459 -113 160 -263 304 -438 419 -47 31
-89 57 -92 57 -3 0 -28 13 -56 29 -120 71 -414 168 -568 187 -32 4 -65 8 -73
10 -8 1 -30 3 -49 3 -19 1 -31 4 -28 8 9 8 108 45 125 46 6 0 12 4 12 7 0 4
15 13 33 21 17 7 34 16 37 19 3 3 21 17 40 30 67 47 118 99 208 215 5 6 24 39
44 75 50 91 87 197 114 325 24 113 21 295 -7 430 -27 127 -108 317 -166 385
-12 15 -23 31 -23 35 0 15 -137 142 -193 178 -59 40 -151 85 -186 92 -12 3
-31 8 -43 11 -39 11 -261 13 -303 3z"/>
<path d="M1340 2633 c-76 -11 -202 -63 -257 -106 -41 -32 -125 -122 -153 -163
-63 -91 -116 -229 -135 -349 -7 -50 -7 -219 0 -260 35 -182 111 -338 216 -444
47 -47 140 -111 186 -128 15 -6 37 -15 48 -19 29 -11 32 -11 60 -13 37 -2 30
-19 -7 -19 -70 0 -149 -14 -328 -57 -42 -10 -145 -51 -221 -89 -235 -115 -437
-302 -552 -508 -35 -62 -88 -188 -80 -188 3 0 1 -6 -5 -13 -6 -7 -13 -26 -16
-42 -2 -17 -5 -30 -6 -30 -4 0 -11 -43 -16 -92 -4 -46 -2 -53 13 -54 62 -3
634 -1 637 2 2 2 6 30 10 62 20 192 103 406 234 605 68 103 262 303 374 385
43 32 81 57 84 57 4 0 15 7 24 15 29 26 262 140 348 170 47 16 82 34 82 42 0
7 3 13 8 13 4 0 12 10 18 23 6 12 21 40 34 63 l22 41 -46 49 c-26 27 -64 74
-84 104 -20 30 -41 58 -47 62 -5 4 -7 8 -2 8 4 0 -5 19 -20 43 -14 23 -26 43
-25 45 1 1 -4 17 -11 35 -29 69 -57 166 -71 242 -16 93 -18 306 -3 388 6 31 8
59 5 62 -6 7 -115 45 -143 51 -31 6 -147 11 -175 7z"/>
<path d="M3573 2595 c-28 -8 -69 -22 -90 -32 -35 -17 -38 -21 -33 -53 2 -19 4
-50 5 -67 0 -18 3 -33 6 -33 8 0 3 -232 -5 -280 -4 -19 -9 -46 -11 -60 -3 -14
-7 -36 -10 -49 -10 -56 -51 -161 -92 -241 -44 -85 -146 -228 -169 -237 -35
-13 -24 -60 36 -148 24 -35 41 -46 117 -74 96 -37 336 -157 341 -172 2 -5 8
-9 14 -9 5 0 26 -12 46 -27 20 -16 41 -31 47 -35 206 -154 377 -361 480 -582
34 -73 75 -178 80 -206 1 -3 4 -18 8 -35 17 -70 19 -82 23 -115 2 -19 6 -44 8
-55 3 -11 5 -28 5 -37 1 -17 24 -18 331 -18 l331 0 -6 43 c-37 273 -174 515
-400 707 -120 101 -240 170 -420 240 -97 38 -223 69 -305 74 -20 1 -40 4 -45
7 -6 3 -22 5 -38 4 -29 -1 -32 16 -4 22 9 1 23 4 31 6 8 2 48 20 88 40 169 86
298 262 352 479 31 122 29 322 -3 435 -50 174 -136 308 -266 412 -36 28 -159
87 -201 96 -67 14 -200 15 -251 0z"/>
</g>
</svg>
