<?xml version="1.0" standalone="no"?>
<!DOCTYPE svg PUBLIC "-//W3C//DTD SVG 20010904//EN"
 "http://www.w3.org/TR/2001/REC-SVG-20010904/DTD/svg10.dtd">
<svg version="1.0" xmlns="http://www.w3.org/2000/svg"
 width="512.000000pt" height="512.000000pt" viewBox="0 0 512.000000 512.000000"
 preserveAspectRatio="xMidYMid meet">
<metadata>
Created by potrace 1.11, written by Peter Selinger 2001-2013
</metadata>
<g transform="translate(0.000000,512.000000) scale(0.100000,-0.100000)"
fill="#000000" stroke="none">
<path d="M2427 5084 c-2 -3 -13 -6 -23 -8 -54 -11 -81 -20 -101 -32 -13 -8
-23 -12 -23 -9 0 7 -89 -43 -130 -73 -89 -65 -192 -180 -236 -262 -10 -19 -21
-37 -24 -40 -18 -17 -89 -205 -95 -253 -2 -15 -6 -31 -9 -35 -9 -15 -20 -141
-19 -232 0 -97 6 -166 22 -232 5 -21 7 -38 4 -38 -3 0 -1 -6 5 -12 5 -7 13
-29 17 -48 28 -134 165 -346 296 -455 26 -23 148 -98 164 -102 38 -10 115 -39
115 -44 0 -4 -33 -10 -72 -13 -40 -4 -91 -11 -113 -16 -22 -5 -52 -11 -67 -14
-16 -3 -39 -8 -53 -11 -14 -3 -62 -17 -108 -31 -297 -94 -551 -250 -753 -465
-48 -51 -153 -183 -154 -192 0 -5 -11 -23 -24 -40 -27 -36 -109 -205 -121
-249 -2 -5 -4 -10 -5 -13 -1 -3 -4 -9 -5 -15 -1 -5 -4 -12 -5 -15 -1 -3 -3 -8
-4 -12 -2 -5 -8 -28 -15 -53 -7 -25 -15 -56 -17 -70 -3 -14 -7 -36 -9 -50 -3
-14 -7 -44 -10 -68 l-5 -42 1705 0 1705 0 -5 23 c-3 12 -7 38 -9 57 -14 121
-66 282 -131 407 -60 116 -85 157 -96 161 -5 2 -9 8 -9 14 0 5 -6 15 -12 22
-7 7 -26 31 -43 52 -53 70 -200 210 -286 273 -46 34 -93 68 -104 77 -47 36
-309 157 -410 189 -119 38 -261 70 -365 80 -72 8 -82 12 -54 21 50 16 192 89
228 116 59 46 156 146 192 198 70 102 137 256 159 365 5 22 9 42 10 45 1 3 5
37 10 75 41 342 -86 696 -323 903 -33 28 -65 52 -70 52 -6 0 -12 3 -14 8 -7
16 -127 72 -195 90 -52 15 -103 20 -186 21 -63 0 -117 -2 -120 -5z"/>
<path d="M1348 4445 c-2 -2 -19 -6 -40 -9 -91 -14 -206 -76 -286 -154 -49 -48
-135 -160 -141 -184 -1 -4 -13 -33 -27 -64 -22 -51 -50 -148 -60 -214 -6 -37
-5 -221 0 -250 24 -115 56 -218 78 -246 4 -6 5 -14 1 -17 -3 -4 -1 -7 5 -7 7
0 12 -5 12 -10 0 -16 60 -102 108 -154 78 -85 231 -172 312 -178 39 -3 48 -14
12 -15 -187 -2 -426 -67 -612 -166 -66 -35 -168 -100 -208 -132 -32 -24 -189
-183 -212 -213 -114 -150 -197 -348 -217 -519 -5 -40 -3 -43 19 -44 158 -4
622 1 628 7 4 5 11 32 14 59 14 115 51 251 99 358 39 89 122 238 148 266 10
11 19 25 19 30 0 6 6 14 13 18 7 4 21 19 30 32 42 62 196 207 297 280 30 22
60 45 66 50 53 44 352 190 422 206 16 3 37 14 45 23 15 18 87 140 87 148 0 3
-10 15 -23 27 -136 132 -248 359 -285 580 -9 58 -8 309 2 378 l8 56 -59 21
c-32 11 -74 24 -93 28 -35 7 -157 13 -162 9z"/>
<path d="M3573 4404 c-72 -18 -129 -48 -125 -64 2 -7 4 -30 6 -50 1 -20 5 -41
8 -46 6 -11 1 -281 -6 -314 -3 -14 -8 -38 -12 -55 -35 -178 -118 -347 -239
-490 l-57 -67 33 -64 c18 -36 40 -71 49 -79 8 -7 51 -27 95 -43 95 -35 279
-127 353 -176 28 -19 52 -33 52 -31 0 2 13 -8 29 -23 15 -15 38 -34 51 -42 22
-15 62 -49 130 -113 44 -41 142 -153 154 -175 5 -10 15 -21 23 -25 7 -4 13
-14 13 -22 0 -7 4 -15 8 -17 10 -4 71 -106 110 -183 43 -87 93 -226 95 -267 1
-10 4 -18 7 -18 3 0 6 -8 6 -17 1 -10 5 -38 9 -63 4 -25 9 -56 10 -70 1 -14 3
-31 4 -37 1 -10 74 -13 331 -13 l331 0 -6 48 c-20 157 -109 369 -210 502 -75
99 -190 207 -295 279 -148 101 -360 192 -505 216 -11 2 -20 4 -20 5 0 2 -69
12 -97 14 -16 0 -28 3 -28 6 0 3 -25 5 -55 4 -30 -1 -55 2 -55 5 0 4 26 12 58
20 150 34 295 154 392 326 27 48 72 165 64 165 -4 0 -2 6 4 13 34 41 36 320 4
447 -45 172 -151 336 -272 420 -19 13 -37 27 -40 30 -3 3 -27 15 -55 28 -112
50 -245 63 -352 36z"/>
<path d="M420 1380 l0 -370 155 0 155 0 0 -325 0 -325 730 0 730 0 0 -150 0
-150 370 0 370 0 0 150 0 150 760 0 760 0 0 325 0 325 140 0 140 0 0 370 0
370 -370 0 -370 0 0 -370 0 -370 160 0 160 0 0 -255 0 -255 -690 0 -690 0 0
150 0 150 -145 0 -145 0 0 105 0 105 145 0 145 0 0 370 0 370 -370 0 -370 0 0
-370 0 -370 155 0 155 0 0 -105 0 -105 -155 0 -155 0 0 -150 0 -150 -660 0
-660 0 0 255 0 255 145 0 145 0 0 370 0 370 -370 0 -370 0 0 -370z"/>
</g>
</svg>
