<?xml version="1.0" standalone="no"?>
<!DOCTYPE svg PUBLIC "-//W3C//DTD SVG 20010904//EN"
 "http://www.w3.org/TR/2001/REC-SVG-20010904/DTD/svg10.dtd">
<svg version="1.0" xmlns="http://www.w3.org/2000/svg"
 width="512.000000pt" height="512.000000pt" viewBox="0 0 512.000000 512.000000"
 preserveAspectRatio="xMidYMid meet">
<metadata>
Created by potrace 1.11, written by Peter Selinger 2001-2013
</metadata>
<g transform="translate(0.000000,512.000000) scale(0.100000,-0.100000)"
fill="#000000" stroke="none">
<path d="M2415 4984 c-119 -19 -217 -50 -313 -98 -382 -193 -652 -619 -709
-1116 -12 -97 -8 -345 6 -430 18 -109 58 -263 87 -339 130 -335 363 -599 647
-735 81 -39 246 -86 300 -86 57 0 20 -10 -54 -15 -80 -5 -152 -12 -212 -21
-20 -3 -47 -7 -60 -9 -120 -14 -356 -73 -505 -125 -304 -107 -594 -273 -832
-474 -154 -131 -362 -375 -462 -542 -151 -256 -253 -551 -274 -794 l-6 -65
2527 0 2527 0 -6 65 c-22 248 -116 525 -265 777 -131 223 -358 477 -567 635
-299 226 -613 377 -974 468 -63 16 -128 32 -145 34 -16 3 -39 8 -50 10 -41 8
-111 19 -135 21 -14 1 -59 6 -100 10 -41 4 -93 9 -115 11 -22 1 -49 4 -60 5
-11 1 6 5 38 10 514 75 931 568 1013 1199 15 109 9 385 -10 480 -1 8 -6 33
-11 55 -12 63 -31 135 -55 205 -26 76 -128 293 -141 298 -5 2 -9 8 -9 14 0 5
-31 52 -70 103 -252 335 -636 506 -1005 449z"/>
</g>
</svg>
